<?xml version="1.0" encoding="UTF-8" standalone="no"?>
<!-- Created with Inkscape (http://www.inkscape.org/) -->

<svg
   xmlns:dc="http://purl.org/dc/elements/1.1/"
   xmlns:cc="http://creativecommons.org/ns#"
   xmlns:rdf="http://www.w3.org/1999/02/22-rdf-syntax-ns#"
   xmlns:svg="http://www.w3.org/2000/svg"
   xmlns="http://www.w3.org/2000/svg"
   xmlns:sodipodi="http://sodipodi.sourceforge.net/DTD/sodipodi-0.dtd"
   xmlns:inkscape="http://www.inkscape.org/namespaces/inkscape"
   width="500"
   height="500"
   viewBox="0 0 500.00001 500.00001"
   id="svg6179"
   version="1.1"
   inkscape:version="0.91 r"
   sodipodi:docname="digamma_logo.svg">
  <defs
     id="defs6181" />
  <sodipodi:namedview
     id="base"
     pagecolor="#ffffff"
     bordercolor="#666666"
     borderopacity="1.0"
     inkscape:pageopacity="0.0"
     inkscape:pageshadow="2"
     inkscape:zoom="0.49497475"
     inkscape:cx="93.508185"
     inkscape:cy="229.62617"
     inkscape:document-units="px"
     inkscape:current-layer="g6775"
     showgrid="false"
     units="px"
     inkscape:window-width="1440"
     inkscape:window-height="836"
     inkscape:window-x="0"
     inkscape:window-y="27"
     inkscape:window-maximized="1" />
  <metadata
     id="metadata6184">
    <rdf:RDF>
      <cc:Work
         rdf:about="">
        <dc:format>image/svg+xml</dc:format>
        <dc:type
           rdf:resource="http://purl.org/dc/dcmitype/StillImage" />
        <dc:title></dc:title>
      </cc:Work>
    </rdf:RDF>
  </metadata>
  <g
     inkscape:label="Layer 1"
     inkscape:groupmode="layer"
     id="layer1"
     transform="translate(0,-552.36216)">
    <g
       id="g6751"
       transform="matrix(2.1757348,0,0,2.1757348,-576.00214,-616.86766)">
      <g
         id="g6757">
        <g
           id="g6769">
          <g
             id="g6775">
            <g
               style="font-style:normal;font-weight:normal;font-size:771.5501709px;line-height:125%;font-family:sans-serif;letter-spacing:0px;word-spacing:0px;fill:#000000;fill-opacity:1;stroke:none;stroke-width:1px;stroke-linecap:butt;stroke-linejoin:miter;stroke-opacity:1"
               id="text4743" />
            <rect
               style="fill:#728bb2;fill-opacity:1;stroke:none;stroke-width:10;stroke-linecap:round;stroke-linejoin:round;stroke-miterlimit:4;stroke-dasharray:none;stroke-opacity:1"
               id="rect6806"
               width="206.82668"
               height="206.82668"
               x="276.22949"
               y="548.88574" />
            <g
               id="g6782"
               transform="matrix(0.95067963,0,0,0.95067963,-34.433543,152.84796)"
               style="fill:#ffffff;fill-opacity:1;stroke:none;stroke-opacity:1">
              <g
                 id="g6817"
                 transform="matrix(0.98381961,-0.1700171,0.16973736,0.98544104,-82.302472,81.731568)">
                <path
                   transform="translate(0,9.1922967e-6)"
                   d="m 550.64128,487.31209 q 0,22.22728 -6.40447,43.32436 -6.02774,20.72034 -19.96688,38.42681 -13.5624,17.70647 -35.41295,32.02235 -21.85054,14.31587 -53.11942,23.35747 l 0,-29.00848 q 34.28275,-10.92527 50.10556,-26.74807 16.19954,-15.82281 16.19954,-36.54315 0,-6.7812 -3.76734,-11.30201 -3.76733,-4.89753 -9.41834,-8.28813 -5.651,-3.76734 -12.4322,-7.15794 -6.40447,-3.3906 -12.05547,-7.9114 -5.651,-4.89754 -9.41834,-11.67874 -3.76733,-7.15794 -3.76733,-17.70647 0,-20.34361 12.80893,-30.89215 12.80894,-10.92527 32.77582,-10.92527 10.54854,0 20.34361,4.14407 9.79507,3.76733 17.32974,11.67874 7.53467,7.53467 11.67873,19.2134 4.52081,11.30201 4.52081,25.99461 z"
                   style="font-style:normal;font-variant:normal;font-weight:normal;font-stretch:normal;font-size:771.5501709px;line-height:125%;font-family:'Liberation Serif';-inkscape-font-specification:'Liberation Serif';letter-spacing:0px;word-spacing:0px;fill:#ffffff;fill-opacity:1;stroke:none;stroke-width:1px;stroke-linecap:butt;stroke-linejoin:miter;stroke-opacity:1"
                   id="path6764"
                   inkscape:connector-curvature="0" />
                <g
                   transform="scale(-1,-1)"
                   style="font-style:normal;font-weight:normal;font-size:771.5501709px;line-height:125%;font-family:sans-serif;letter-spacing:0px;word-spacing:0px;fill:#ffffff;fill-opacity:1;stroke:none;stroke-width:1px;stroke-linecap:butt;stroke-linejoin:miter;stroke-opacity:1"
                   id="text4755">
                  <path
                     d="m -320.83385,-563.41226 q 0,22.22728 -6.40447,43.32436 -6.02774,20.72034 -19.96688,38.42681 -13.5624,17.70647 -35.41294,32.02235 -21.85055,14.31587 -53.11942,23.35747 l 0,-29.00848 q 34.28274,-10.92527 50.10555,-26.74807 16.19954,-15.82281 16.19954,-36.54315 0,-6.7812 -3.76734,-11.30201 -3.76733,-4.89753 -9.41833,-8.28813 -5.65101,-3.76734 -12.43221,-7.15794 -6.40447,-3.3906 -12.05547,-7.9114 -5.651,-4.89754 -9.41834,-11.67874 -3.76733,-7.15794 -3.76733,-17.70647 0,-20.34361 12.80894,-30.89215 12.80894,-10.92527 32.77581,-10.92527 10.54854,0 20.34361,4.14407 9.79507,3.76733 17.32974,11.67874 7.53467,7.53467 11.67874,19.2134 4.5208,11.30201 4.5208,25.99461 z"
                     style="font-style:normal;font-variant:normal;font-weight:normal;font-stretch:normal;font-family:'Liberation Serif';-inkscape-font-specification:'Liberation Serif';fill:#ffffff;fill-opacity:1;stroke:none;stroke-opacity:1"
                     id="path6767"
                     inkscape:connector-curvature="0" />
                </g>
              </g>
            </g>
          </g>
        </g>
      </g>
    </g>
  </g>
</svg>
