<?xml version="1.0" encoding="UTF-8" standalone="no"?>
<!-- Created with Inkscape (http://www.inkscape.org/) -->

<svg
   xmlns:dc="http://purl.org/dc/elements/1.1/"
   xmlns:cc="http://creativecommons.org/ns#"
   xmlns:rdf="http://www.w3.org/1999/02/22-rdf-syntax-ns#"
   xmlns:svg="http://www.w3.org/2000/svg"
   xmlns="http://www.w3.org/2000/svg"
   xmlns:sodipodi="http://sodipodi.sourceforge.net/DTD/sodipodi-0.dtd"
   xmlns:inkscape="http://www.inkscape.org/namespaces/inkscape"
   width="500"
   height="500"
   viewBox="0 0 500.00001 500.00001"
   id="svg6404"
   version="1.1"
   inkscape:version="0.91 r"
   sodipodi:docname="neo_front.svg"
   inkscape:export-filename="/home/ahmad/var/projects/digamma/website/artwork/frontend.png"
   inkscape:export-xdpi="90"
   inkscape:export-ydpi="90">
  <defs
     id="defs6406" />
  <sodipodi:namedview
     id="base"
     pagecolor="#ffffff"
     bordercolor="#666666"
     borderopacity="1.0"
     inkscape:pageopacity="0.0"
     inkscape:pageshadow="2"
     inkscape:zoom="1"
     inkscape:cx="3.3274877"
     inkscape:cy="201.32521"
     inkscape:document-units="px"
     inkscape:current-layer="layer1"
     showgrid="false"
     units="px"
     inkscape:window-width="2560"
     inkscape:window-height="1416"
     inkscape:window-x="0"
     inkscape:window-y="24"
     inkscape:window-maximized="1" />
  <metadata
     id="metadata6409">
    <rdf:RDF>
      <cc:Work
         rdf:about="">
        <dc:format>image/svg+xml</dc:format>
        <dc:type
           rdf:resource="http://purl.org/dc/dcmitype/StillImage" />
        <dc:title />
      </cc:Work>
    </rdf:RDF>
  </metadata>
  <g
     inkscape:label="Layer 1"
     inkscape:groupmode="layer"
     id="layer1"
     transform="translate(0,-552.36216)">
    <g
       id="g4184"
       transform="translate(-1.0408103e-6,-18.344595)">
      <path
         sodipodi:nodetypes="cccccc"
         inkscape:connector-curvature="0"
         id="path6956"
         d="m 186.42306,705.61777 127.1123,0 -12.45246,104.08942 -51.88259,17.1861 -51.88256,-17.1861 z"
         style="fill:none;fill-rule:evenodd;stroke:#000000;stroke-width:5;stroke-linecap:butt;stroke-linejoin:miter;stroke-miterlimit:4;stroke-dasharray:none;stroke-opacity:1" />
      <path
         style="fill:none;fill-rule:evenodd;stroke:#000000;stroke-width:5;stroke-linecap:round;stroke-linejoin:round;stroke-miterlimit:4;stroke-dasharray:none;stroke-opacity:1"
         d="m 170.89233,852.85703 c -29.38835,-8.33993 -92.428956,-42.93148 -92.428956,-42.93148 0,0 14.90038,-107.42043 48.487316,-137.38075 C 160.53763,642.58448 239.3799,640.76561 250,640.76561 c 10.6201,0 89.46237,1.81887 123.04931,31.77919 33.58694,29.96032 48.48732,137.38075 48.48732,137.38075 0,0 -63.04061,34.59155 -92.42896,42.93148 -29.38835,8.33993 -52.54513,9.59645 -79.10767,9.59645 -26.56254,0 -49.71932,-1.25652 -79.10767,-9.59645 z"
         id="path4201"
         inkscape:connector-curvature="0"
         sodipodi:nodetypes="zczzzczzz" />
      <path
         transform="translate(0,552.36216)"
         inkscape:connector-curvature="0"
         id="path4221"
         d="m 224.22025,263.48427 c -13.35714,-4.42873 -24.31904,-8.07474 -24.35977,-8.10226 -0.0407,-0.0275 -2.32903,-21.65957 -5.08512,-48.07122 -2.75609,-26.41165 -5.10838,-48.78458 -5.22732,-49.71762 l -0.21625,-1.69642 30.21209,0 30.21208,0 0,57.85714 c 0,54.87814 -0.0322,57.85522 -0.625,57.81988 -0.34375,-0.0205 -11.55357,-3.66077 -24.91071,-8.0895 z"
         style="fill:#666666;fill-opacity:1;stroke:none;stroke-width:1.78571427;stroke-linecap:round;stroke-linejoin:round;stroke-miterlimit:4;stroke-dasharray:none;stroke-opacity:1" />
      <path
         style="fill:none;fill-rule:evenodd;stroke:#000000;stroke-width:5;stroke-linecap:round;stroke-linejoin:round;stroke-miterlimit:4;stroke-dasharray:none;stroke-opacity:1"
         d="m 405.0728,821.64787 c 0,0 25.07724,59.66997 24.85714,86.28572 -22.5805,83.73171 -112.45917,92.71431 -179.92993,92.71431 -67.47076,0 -157.349447,-8.9826 -179.929948,-92.71431 -0.220094,-26.61575 24.857143,-86.28572 24.857143,-86.28572"
         id="path4142"
         inkscape:connector-curvature="0"
         sodipodi:nodetypes="cczcc" />
      <path
         transform="translate(0,552.36216)"
         inkscape:connector-curvature="0"
         id="path4182"
         d="M 217.02749,444.4129 C 161.87332,439.92216 128.50036,428.69623 103.4182,406.19724 88.072411,392.43189 73.527488,365.8564 73.527488,351.58298 c 0,-11.95444 11.374367,-50.90198 22.398171,-76.69471 l 1.575614,-3.68651 22.263107,10.81591 c 35.61656,17.3033 48.47531,21.96112 73.26311,26.53806 28.31703,5.2286 75.60517,5.92574 104.72316,1.54388 28.92045,-4.35214 44.93822,-9.80052 82.57165,-28.08639 21.61364,-10.50195 22.32088,-10.76579 23.14804,-8.63568 0.46928,1.20849 1.85033,4.67225 3.06901,7.69725 9.84036,24.42574 18.72461,54.98074 19.62647,67.5 0.52234,7.25098 0.28786,8.78352 -2.50446,16.36864 -17.71444,48.11989 -60.79576,73.15298 -136.08376,79.07366 -12.06731,0.94897 -60.42424,1.22027 -70.55011,0.39581 z"
         style="fill:#e4e4e4;fill-opacity:1;stroke:none;stroke-width:5;stroke-linecap:round;stroke-linejoin:round;stroke-miterlimit:4;stroke-dasharray:none;stroke-opacity:1" />
    </g>
  </g>
</svg>
